# xmcd CD database file
#
# Track frame offsets:
#	150
#	20270
#	32283
#	45358
#	61645
#	74540
#	86545
#	98235
#	108610
#	122953
#	138168
#	150170
#	167018
#	185358
#	198515
#	216433
#	233828
#
# Disc length: 3282 seconds
#
# Revision: 0
# Processed by: cddbd v1.5.2PL0 Copyright (c) Steve Scherf et al.
# Submitted via: CDex 1.51
#
DISCID=d90cd011
DTITLE=Rosenberg Trio - Live at the North Sea Jazz Festival
DYEAR=1992
DGENRE=Jazz
TTITLE0=For Sephora
TTITLE1=Minor Swing
TTITLE2=Les Yeus Noirs
TTITLE3=Chega de Saudade
TTITLE4=Bebop
TTITLE5=Bossa Dorado
TTITLE6=Pent-Up House
TTITLE7=Avalon
TTITLE8=Nuages
TTITLE9=Honeysuckle Rose
TTITLE10=La Gilana
TTITLE11=Armando's Rumba
TTITLE12=Blue Bossa
TTITLE13=Swing de Paris
TTITLE14=Les Feuilles Mortes
TTITLE15=Spain
TTITLE16=Sweed Georgia Brown
EXTD=YEAR: 1992
EXTT0=
EXTT1=
EXTT2=
EXTT3=
EXTT4=
EXTT5=
EXTT6=
EXTT7=
EXTT8=
EXTT9=
EXTT10=
EXTT11=
EXTT12=
EXTT13=
EXTT14=
EXTT15=
EXTT16=
PLAYORDER=
